<?xml version="1.0" standalone="no"?>
<!DOCTYPE svg PUBLIC "-//W3C//DTD SVG 20010904//EN"
 "http://www.w3.org/TR/2001/REC-SVG-20010904/DTD/svg10.dtd">
<svg version="1.0" xmlns="http://www.w3.org/2000/svg"
 width="500.000000pt" height="500.000000pt" viewBox="0 0 500.000000 500.000000"
 preserveAspectRatio="xMidYMid meet">

<g transform="translate(0.000000,500.000000) scale(0.100000,-0.100000)"
fill="#000000" stroke="none">
<path d="M0 2783 l0 -2216 23 21 c13 12 27 22 33 22 5 0 29 23 54 50 67 76
193 114 244 75 30 -23 55 -18 134 25 81 44 104 48 160 24 36 -15 38 -15 59 11
28 32 59 44 100 38 27 -4 40 2 80 37 49 44 114 79 146 80 10 0 34 8 55 19 20
10 52 21 70 24 38 8 149 72 204 118 26 22 50 33 85 37 29 3 53 12 60 22 7 9
50 31 97 49 46 18 96 41 111 53 34 27 42 17 26 -35 -8 -23 -15 -73 -18 -112
l-3 -70 20 24 c12 14 18 31 15 42 -4 12 -1 21 8 25 11 4 13 23 9 87 -6 115 -6
114 -4 200 2 73 3 78 22 72 24 -8 26 2 5 25 -9 10 -23 40 -33 68 -10 27 -23
56 -29 64 -6 7 -7 22 -4 32 7 18 -4 66 -21 91 -8 13 2 65 12 65 4 0 10 9 13
20 3 11 1 20 -5 20 -6 0 -8 15 -6 35 2 20 0 35 -7 35 -5 1 4 7 20 14 l30 13
-32 7 c-42 10 -50 24 -21 35 19 8 20 10 4 10 -16 1 -18 6 -12 41 3 22 3 40 -2
40 -9 0 -9 101 0 116 10 15 -2 54 -16 54 -6 0 -5 4 3 9 10 7 11 13 2 27 -6 11
-11 13 -11 7 0 -7 -7 -13 -15 -13 -18 0 -20 20 -2 20 6 0 4 5 -6 11 -9 6 -15
14 -12 18 2 5 -2 14 -10 21 -8 7 -15 21 -15 30 0 10 -5 20 -12 22 -13 5 -15
18 -25 168 -13 199 -1 389 27 425 5 6 8 27 7 47 -1 30 6 45 33 73 30 30 114
79 172 98 10 4 53 33 97 67 43 33 86 60 94 60 8 0 27 7 43 15 16 8 38 12 50 9
15 -4 23 0 26 14 5 18 80 45 148 54 16 2 29 13 37 31 7 16 22 31 33 34 11 3
20 10 20 15 0 5 7 2 16 -7 10 -9 24 -13 36 -10 10 4 26 1 34 -6 8 -6 31 -15
52 -20 114 -25 143 -30 226 -40 75 -9 206 -41 275 -67 10 -4 12 -1 6 8 -4 7
17 -1 48 -17 54 -30 57 -30 57 -10 0 19 1 20 20 2 11 -10 20 -30 20 -44 0 -20
-2 -23 -10 -11 -5 8 -10 10 -10 4 0 -18 12 -24 25 -14 9 8 20 2 39 -20 14 -18
26 -36 26 -41 0 -5 6 -9 13 -9 19 -1 63 -71 71 -112 8 -45 -1 -50 -15 -8 -6
16 -15 28 -20 24 -11 -6 -8 -55 4 -71 6 -8 6 -13 -1 -13 -5 0 -13 -8 -16 -17
-4 -10 -4 -14 0 -10 20 20 36 -88 41 -279 4 -147 9 -201 17 -200 18 3 68 44
57 48 -5 1 4 35 20 73 16 39 29 80 29 92 0 12 5 34 11 50 13 33 31 143 33 193
0 19 6 41 13 48 7 8 11 17 8 22 -3 5 -1 11 5 15 14 9 12 47 -5 88 -8 20 -15
47 -15 60 0 12 -8 39 -19 59 -14 28 -15 38 -6 42 14 5 41 103 31 113 -3 4 -6
-2 -6 -12 0 -15 -4 -14 -25 9 -13 14 -27 26 -32 26 -4 0 -2 -5 5 -12 7 -7 12
-16 12 -22 0 -5 -14 10 -31 34 -27 37 -29 46 -20 67 19 42 13 87 -14 113 -14
13 -25 29 -25 37 0 16 -12 17 -28 1 -17 -17 -33 2 -38 41 -6 53 -80 174 -142
233 -69 66 -141 96 -239 100 -53 2 -77 -2 -111 -18 -40 -20 -61 -17 -47 6 8
13 -13 40 -31 40 -9 0 -11 -10 -7 -33 7 -44 -27 -87 -68 -87 -26 0 -29 3 -30
33 l-1 32 -10 -28 -10 -29 -30 36 c-18 22 -38 36 -52 36 -12 0 -35 14 -51 30
-16 17 -23 30 -16 30 11 0 11 3 1 15 -7 9 -19 14 -26 11 -8 -3 -13 0 -11 7 3
17 -44 20 -109 7 -53 -11 -184 -73 -309 -147 -33 -19 -75 -40 -92 -45 -20 -5
-39 -20 -47 -37 -8 -15 -34 -40 -56 -55 -23 -15 -39 -22 -35 -15 14 22 -56
-25 -71 -49 -8 -12 -39 -33 -68 -46 -39 -18 -55 -30 -60 -49 -3 -15 -17 -37
-31 -51 -14 -14 -25 -35 -25 -48 0 -28 -51 -129 -62 -122 -4 3 -5 -2 -2 -11 4
-9 -1 -24 -10 -34 -10 -11 -13 -22 -8 -25 5 -3 8 -15 7 -28 -1 -18 -8 -24 -36
-27 -29 -3 -31 -5 -14 -11 15 -7 10 -9 -22 -9 -24 -1 -43 -5 -43 -11 0 -5 10
-10 21 -10 17 0 19 -3 10 -14 -7 -8 -13 -46 -14 -85 -1 -39 -5 -71 -9 -71 -13
0 -9 -28 5 -33 9 -3 9 -8 1 -17 -8 -8 -9 -24 -3 -48 11 -49 11 -48 -7 -66 -14
-15 -13 -16 8 -16 19 0 27 -12 52 -75 17 -46 26 -84 22 -98 -4 -16 3 -39 19
-68 14 -24 34 -64 45 -88 12 -24 28 -50 37 -56 14 -11 13 -13 -11 -19 -15 -4
-24 -11 -20 -17 3 -6 8 -8 10 -6 3 3 20 -9 39 -26 30 -26 35 -37 35 -76 0 -24
6 -60 13 -79 10 -29 10 -36 -2 -40 -32 -11 -51 -42 -51 -87 0 -42 2 -46 41
-65 23 -12 43 -19 46 -16 3 2 -5 18 -17 34 -18 24 -20 35 -12 63 l9 34 11 -45
c6 -25 17 -72 25 -105 8 -33 18 -84 21 -112 l7 -53 -33 7 c-18 3 -40 10 -50
14 -22 12 -52 92 -46 123 3 14 2 23 -3 20 -10 -6 -29 61 -29 104 0 18 -7 48
-15 67 -7 19 -17 63 -20 98 l-5 62 22 -75 21 -75 13 30 c7 17 13 48 14 71 0
33 -6 46 -35 74 -19 18 -32 37 -29 41 2 5 -13 17 -36 29 -22 11 -39 24 -39 28
4 22 -4 43 -25 75 -14 20 -34 68 -45 108 -15 55 -30 83 -59 113 -45 47 -54 73
-41 119 5 18 5 46 0 62 -4 17 -4 44 1 60 17 62 19 108 4 124 -35 39 -18 129
30 168 80 64 83 69 82 118 0 37 5 52 26 74 14 15 26 34 26 42 0 8 14 28 30 44
17 16 30 34 30 40 0 12 41 55 53 55 4 0 25 20 48 45 23 25 45 45 50 45 11 0
118 82 143 109 11 11 24 21 31 21 6 0 21 11 34 24 12 12 38 28 59 34 21 7 68
39 110 78 75 69 126 92 236 108 26 4 62 14 81 22 69 28 206 8 270 -41 30 -22
30 -22 65 -4 51 28 124 25 187 -7 48 -23 57 -24 108 -15 96 18 179 -7 257 -77
39 -35 128 -144 128 -157 0 -3 14 -18 31 -32 26 -23 129 -165 129 -179 0 -3
13 -16 29 -29 29 -25 59 -104 46 -125 -4 -6 9 -28 29 -50 39 -43 51 -88 43
-156 -3 -26 1 -65 10 -92 8 -26 16 -100 18 -167 3 -104 0 -126 -17 -165 -11
-24 -20 -56 -20 -70 1 -34 -17 -90 -38 -117 -9 -12 -23 -50 -30 -83 -12 -56
-11 -65 4 -92 26 -43 30 -129 12 -240 -9 -54 -16 -117 -16 -140 0 -41 -11 -91
-44 -207 -15 -54 -84 -141 -112 -141 -20 0 -24 -13 -39 -112 -16 -105 -33
-168 -43 -168 -4 1 -18 7 -32 15 -37 21 -43 18 -62 -23 -13 -28 -15 -48 -8
-82 4 -25 11 -80 15 -123 8 -86 14 -96 94 -148 26 -17 59 -29 77 -29 17 0 42
-9 56 -19 13 -11 62 -31 109 -46 46 -14 107 -37 136 -51 28 -13 56 -24 61 -24
5 0 37 -18 70 -40 34 -23 69 -42 79 -44 10 -2 38 -7 63 -11 57 -9 87 -25 125
-65 38 -40 76 -60 115 -60 38 0 65 -13 105 -51 43 -40 105 -59 197 -59 58 0
99 -7 154 -25 41 -14 94 -25 118 -25 48 0 96 -29 96 -59 0 -30 60 -110 106
-142 l44 -30 0 2256 0 2255 -2500 0 -2500 0 0 -2217z m1905 1177 c-3 -5 -19
-19 -36 -31 l-31 -22 12 24 c7 13 18 27 24 31 16 11 38 10 31 -2z m1265 -91
c0 -6 -9 -5 -20 1 -11 6 -20 21 -20 33 l1 22 19 -24 c11 -13 20 -27 20 -32z
m160 -658 c0 -32 -6 -24 -14 19 -4 25 -3 31 4 20 5 -8 10 -26 10 -39z m-1641
-1336 c3 -17 2 -17 -13 -3 -19 20 -21 31 -3 26 6 -3 14 -13 16 -23z m48 -787
c-3 -7 -5 -2 -5 12 0 14 2 19 5 13 2 -7 2 -19 0 -25z"/>
<path d="M2963 2983 c3 -5 -23 -9 -56 -9 -34 -1 -84 -2 -112 -3 -76 -2 -146
-22 -142 -40 1 -9 -3 -20 -9 -26 -7 -5 -15 -25 -19 -44 -6 -26 -4 -32 6 -29 8
3 17 18 20 34 7 28 7 28 14 6 6 -17 11 -20 20 -12 8 7 16 7 19 2 7 -11 141 11
196 32 39 15 107 10 130 -9 8 -7 26 -15 40 -18 15 -4 46 -25 70 -47 49 -45 69
-46 25 0 -16 17 -25 30 -19 30 5 1 -8 10 -28 21 -43 22 -48 30 -16 21 18 -4
15 1 -14 27 -21 18 -53 37 -73 42 -19 6 -33 14 -30 20 4 5 -1 9 -10 9 -9 0
-14 -3 -12 -7z"/>
<path d="M1790 2923 c-36 -26 -67 -52 -69 -56 -2 -5 -16 -24 -32 -42 -16 -18
-29 -37 -29 -43 0 -24 -24 -62 -39 -62 -13 0 -13 -2 -2 -9 7 -5 11 -15 9 -22
-3 -8 -1 -23 5 -34 10 -18 10 -18 20 5 6 14 9 28 9 33 -1 4 5 7 13 7 8 0 17
11 21 25 3 14 13 25 23 25 11 0 12 3 4 8 -9 5 -5 14 14 27 14 11 31 25 37 30
22 22 85 45 120 45 79 0 166 -30 166 -56 0 -4 12 -21 28 -37 19 -21 22 -28 10
-24 -10 4 -18 2 -18 -3 0 -6 3 -10 8 -10 7 0 52 -62 52 -72 0 -3 -36 1 -81 10
-73 13 -87 13 -142 -2 -34 -9 -70 -18 -79 -20 -21 -5 -24 14 -6 32 21 21 -7
13 -30 -8 -11 -11 -27 -17 -35 -14 -11 4 -16 -7 -21 -41 -8 -51 5 -79 34 -70
11 3 21 -4 31 -21 12 -23 45 -44 69 -44 4 0 6 10 2 23 -5 19 -3 20 10 9 13
-10 17 -10 22 4 3 9 4 20 0 25 -3 5 -1 15 3 22 6 10 15 9 43 -5 19 -10 30 -18
24 -18 -7 0 -15 -7 -18 -16 -5 -12 -1 -14 17 -8 12 3 30 13 40 22 15 14 17 13
17 -2 0 -20 21 -17 28 4 3 7 0 10 -7 6 -16 -11 -13 10 4 24 8 7 15 20 15 29 0
9 5 23 10 31 7 12 11 10 19 -10 7 -19 5 -28 -7 -38 -12 -9 -13 -15 -5 -23 19
-19 -22 -48 -116 -85 l-36 -14 63 4 c34 2 60 0 57 -4 -7 -12 3 -17 51 -24 32
-6 45 -3 58 9 25 25 31 63 12 83 -14 17 -14 19 5 35 16 14 18 21 8 38 -9 17
-8 23 2 30 8 5 19 7 26 4 7 -2 10 2 6 11 -3 7 0 14 6 14 40 0 -19 82 -98 136
l-36 24 35 -6 c19 -4 39 -10 43 -14 11 -9 57 0 57 11 0 5 -9 17 -21 27 -11 9
-27 29 -34 43 -21 40 -71 58 -191 67 -60 5 -116 12 -124 16 -10 4 -40 -11 -80
-41z m120 -329 c0 -8 -4 -12 -10 -9 -5 3 -10 10 -10 16 0 5 5 9 10 9 6 0 10
-7 10 -16z"/>
<path d="M2665 2746 c-17 -7 -36 -20 -44 -29 -19 -23 -6 -65 24 -79 13 -6 22
-15 19 -20 -12 -19 19 -38 62 -38 46 0 54 9 29 30 -12 10 -13 16 -4 26 16 20
29 17 29 -5 0 -23 45 -61 71 -61 11 0 19 -4 19 -10 0 -8 -22 -7 -82 5 -10 2
-18 -1 -18 -6 0 -5 5 -9 10 -9 6 0 10 -4 10 -10 0 -6 -10 -6 -27 1 -14 5 -33
7 -41 4 -43 -16 64 -56 146 -54 36 1 36 2 7 8 -17 3 -31 14 -33 24 -4 20 18
23 36 5 9 -9 12 -8 12 5 0 9 8 17 18 18 11 1 8 4 -8 8 l-25 7 30 15 c17 8 34
24 40 37 5 12 13 22 16 22 10 0 32 -30 23 -30 -5 -1 8 -7 30 -15 28 -10 43
-11 56 -3 16 10 16 13 1 30 -43 52 -200 96 -267 75 -47 -14 -61 1 -34 36 23
29 17 33 -24 17 -16 -6 -27 -6 -31 0 -8 13 -13 12 -50 -4z"/>
<path d="M2281 2537 c-9 -17 -23 -38 -32 -47 -8 -9 -13 -22 -11 -28 2 -7 -1
-12 -7 -12 -6 0 -11 -7 -11 -15 0 -8 3 -14 8 -14 28 5 29 -4 5 -32 -24 -27
-28 -40 -29 -97 -2 -78 -23 -176 -43 -194 -12 -11 -13 -10 -8 5 5 13 1 17 -17
17 -13 0 -29 -7 -36 -15 -9 -11 -7 -19 14 -40 14 -14 30 -25 36 -25 5 0 10
-12 10 -26 0 -23 3 -26 25 -22 14 3 28 1 31 -3 3 -5 -5 -9 -17 -9 -17 0 -20
-4 -16 -21 3 -12 0 -22 -8 -25 -8 -3 -17 -19 -20 -35 -4 -19 -13 -29 -25 -29
-20 0 -90 -38 -90 -48 0 -4 20 -8 44 -10 34 -2 47 1 55 15 8 14 12 16 22 6 15
-15 55 -17 63 -4 3 4 25 11 48 15 23 4 48 12 55 18 18 14 16 57 -2 64 -8 4
-15 11 -15 17 0 6 -7 18 -16 28 -17 19 -12 39 11 39 7 0 16 11 19 24 3 14 15
28 26 31 29 9 25 29 -15 71 -19 20 -35 44 -35 53 0 9 18 35 40 58 l40 42 -6
76 c-4 43 -8 91 -9 109 -2 17 -3 45 -4 63 -1 29 -4 32 -32 31 -24 -1 -35 -8
-48 -31z m-11 -409 c0 -12 -38 -48 -52 -48 -15 0 -13 47 4 67 12 14 48 0 48
-19z"/>
<path d="M3402 2522 c-21 -16 -22 -20 -11 -77 14 -79 26 -89 34 -29 3 27 7 64
10 81 5 40 -4 46 -33 25z"/>
<path d="M1930 2519 c0 -5 5 -7 10 -4 6 3 10 8 10 11 0 2 -4 4 -10 4 -5 0 -10
-5 -10 -11z"/>
<path d="M3310 2365 c0 -8 5 -35 12 -59 10 -39 10 -48 -5 -64 -9 -10 -17 -27
-17 -38 1 -18 1 -18 11 -1 5 9 21 17 34 17 13 0 27 5 30 11 11 16 -27 130 -47
140 -14 7 -18 6 -18 -6z"/>
<path d="M2510 2095 c-7 -9 -11 -17 -9 -18 43 -27 93 -48 105 -43 18 7 10 45
-14 64 -22 17 -67 15 -82 -3z"/>
<path d="M2402 2045 c-23 -26 -21 -29 18 -38 39 -9 53 4 37 36 -15 33 -27 34
-55 2z"/>
<path d="M3250 2005 c0 -10 9 -15 27 -15 29 0 29 2 -4 19 -19 10 -23 9 -23 -4z"/>
<path d="M1738 1923 c7 -3 16 -2 19 1 4 3 -2 6 -13 5 -11 0 -14 -3 -6 -6z"/>
<path d="M2485 1920 c-3 -5 -4 -14 0 -19 11 -18 -15 -22 -33 -5 -16 16 -17 16
-20 1 -2 -9 -11 -17 -20 -17 -15 0 -15 -1 0 -16 22 -22 94 -7 92 19 -2 21 19
22 36 3 6 -8 18 -12 26 -9 8 3 14 0 14 -7 0 -6 4 -9 9 -5 5 3 12 1 16 -5 8
-14 65 -13 65 1 0 6 7 9 15 5 8 -3 15 -1 15 4 0 6 -10 10 -23 10 -13 0 -27 4
-32 9 -9 7 -57 21 -127 35 -15 4 -30 2 -33 -4z"/>
<path d="M2005 1790 c-3 -5 1 -10 9 -10 8 0 18 5 21 10 3 6 -1 10 -9 10 -8 0
-18 -4 -21 -10z"/>
<path d="M2240 1784 c-25 -8 -59 -21 -77 -29 -17 -8 -37 -15 -45 -15 -18 0
-38 -20 -38 -38 0 -8 9 -12 23 -11 13 2 32 -7 48 -23 15 -15 44 -31 65 -37 94
-24 94 -24 94 -4 0 10 -5 24 -12 31 -15 15 13 27 43 19 11 -3 34 -1 51 5 23 8
32 8 38 -2 5 -8 15 -10 26 -5 11 4 33 9 49 10 17 2 51 6 78 10 42 7 47 6 48
-11 0 -11 3 -14 6 -6 2 6 9 10 14 6 5 -3 9 0 9 6 0 7 6 10 14 7 7 -3 31 -2 52
3 22 5 51 11 67 15 32 6 35 20 6 35 -13 8 -24 8 -32 2 -8 -7 -41 0 -102 20
-75 24 -100 28 -150 23 -72 -7 -81 -7 -165 -1 -42 3 -81 0 -110 -10z"/>
<path d="M1775 1761 c-6 -11 9 -23 19 -14 9 9 7 23 -3 23 -6 0 -12 -4 -16 -9z"/>
<path d="M2497 1630 c-5 -18 -2 -21 21 -18 14 2 28 9 30 17 3 9 0 12 -10 8 -9
-3 -20 -1 -25 4 -7 7 -12 3 -16 -11z"/>
<path d="M2458 1623 c7 -3 16 -2 19 1 4 3 -2 6 -13 5 -11 0 -14 -3 -6 -6z"/>
<path d="M2422 1590 c-96 -7 -119 -17 -108 -46 4 -9 9 -14 13 -11 3 4 13 2 20
-5 11 -9 16 -9 23 3 8 11 12 11 24 -6 8 -11 18 -17 22 -12 4 4 15 0 25 -9 11
-10 19 -12 24 -5 3 6 20 11 36 11 19 0 32 6 36 18 4 9 11 20 16 23 12 8 1 26
-21 37 -9 4 -59 5 -110 2z"/>
<path d="M1826 1477 c3 -10 9 -15 12 -12 3 3 0 11 -7 18 -10 9 -11 8 -5 -6z"/>
<path d="M1940 1351 c0 -6 29 -34 64 -64 36 -30 62 -57 59 -61 -3 -3 6 -11 21
-17 15 -7 25 -18 22 -25 -3 -7 2 -15 9 -18 8 -3 12 -12 9 -21 -5 -11 -2 -14
10 -9 11 4 16 1 16 -10 0 -9 6 -16 13 -15 26 3 46 -1 59 -13 14 -13 28 -18 64
-22 11 -2 27 -7 34 -11 17 -10 200 -14 200 -4 0 4 9 5 20 2 11 -3 20 -1 20 5
0 6 12 10 28 10 15 0 41 6 57 13 17 7 32 13 35 14 26 9 49 23 70 42 14 13 30
23 36 23 15 0 50 67 40 77 -5 4 -11 2 -13 -5 -3 -6 -9 -10 -14 -6 -5 3 -15 2
-21 -3 -7 -4 -29 -9 -48 -10 -19 -1 -36 -7 -38 -13 -6 -18 -22 -11 -22 11 l0
21 -35 -22 c-19 -12 -35 -17 -35 -11 0 7 -10 5 -25 -5 -19 -13 -28 -14 -39 -5
-11 9 -15 9 -19 -1 -4 -8 -8 -9 -14 -3 -11 13 -43 15 -43 3 0 -6 -7 -8 -15 -5
-8 4 -16 3 -19 -1 -4 -6 -33 -7 -80 -3 -8 0 -18 10 -21 21 -8 25 -25 26 -25 3
-1 -17 -1 -17 -14 0 -8 10 -20 15 -30 11 -9 -3 -16 -1 -16 6 0 6 -4 9 -9 5 -5
-3 -15 1 -23 8 -7 8 -19 12 -26 9 -6 -2 -12 1 -12 7 0 7 -10 9 -25 5 -15 -4
-25 -2 -25 4 0 7 -14 9 -34 5 -30 -5 -40 0 -84 41 -49 46 -62 54 -62 37z"/>
<path d="M1846 1301 c-4 -5 -2 -12 3 -15 5 -4 12 -2 15 3 4 5 2 12 -3 15 -5 4
-12 2 -15 -3z"/>
<path d="M1730 1030 c0 -5 5 -10 10 -10 6 0 10 5 10 10 0 6 -4 10 -10 10 -5 0
-10 -4 -10 -10z"/>
<path d="M3052 988 c6 -18 25 -20 31 -3 5 10 0 15 -14 15 -12 0 -19 -5 -17
-12z"/>
<path d="M1750 976 c0 -21 44 -87 77 -117 38 -35 153 -109 169 -109 4 0 -23
22 -62 49 -89 63 -125 97 -158 145 -14 21 -26 36 -26 32z"/>
<path d="M2167 695 c79 -25 254 -38 355 -25 51 6 93 12 94 13 1 1 -74 1 -167
1 -108 -1 -195 3 -242 12 -86 17 -96 16 -40 -1z"/>
<path d="M2658 693 c7 -3 16 -2 19 1 4 3 -2 6 -13 5 -11 0 -14 -3 -6 -6z"/>
</g>
</svg>
